<?xml version="1.0" encoding="UTF-8"?>
<svg xmlns="http://www.w3.org/2000/svg" xmlns:xlink="http://www.w3.org/1999/xlink" width="24pt" height="25pt" viewBox="0 0 24 25" version="1.1">
<g id="surface1">
<path style=" stroke:none;fill-rule:nonzero;fill:rgb(20.392157%,56.470588%,86.27451%);fill-opacity:1;" d="M 5.21875 5.480469 L 22.261719 5.480469 C 23.222656 5.480469 24 6.246094 24 7.191406 L 24 23.289062 C 24 24.234375 23.222656 25 22.261719 25 L 5.21875 25 C 4.257812 25 3.476562 24.234375 3.476562 23.289062 L 3.476562 7.191406 C 3.476562 6.246094 4.257812 5.480469 5.21875 5.480469 Z M 5.21875 5.480469 "/>
<path style="fill:none;stroke-width:5;stroke-linecap:round;stroke-linejoin:round;stroke:rgb(100%,100%,100%);stroke-opacity:1;stroke-miterlimit:4;" d="M 5.003906 2.500937 L 54.002441 2.500937 C 55.383789 2.500937 56.495605 3.61875 56.495605 4.998906 L 56.495605 52.004063 C 56.495605 53.384219 55.383789 54.502031 54.002441 54.502031 L 5.003906 54.502031 C 3.622559 54.502031 2.499512 53.384219 2.499512 52.004063 L 2.499512 4.998906 C 2.499512 3.61875 3.622559 2.500937 5.003906 2.500937 Z M 5.003906 2.500937 " transform="matrix(0.347826,0,0,0.342466,3.478261,5.479452)"/>
<path style=" stroke:none;fill-rule:nonzero;fill:rgb(20.392157%,56.470588%,86.27451%);fill-opacity:1;" d="M 1.738281 2.054688 L 18.78125 2.054688 C 19.742188 2.054688 20.523438 2.820312 20.523438 3.765625 L 20.523438 19.863281 C 20.523438 20.808594 19.742188 21.574219 18.78125 21.574219 L 1.738281 21.574219 C 0.777344 21.574219 0 20.808594 0 19.863281 L 0 3.765625 C 0 2.820312 0.777344 2.054688 1.738281 2.054688 Z M 1.738281 2.054688 "/>
<path style="fill:none;stroke-width:5;stroke-linecap:round;stroke-linejoin:round;stroke:rgb(100%,100%,100%);stroke-opacity:1;stroke-miterlimit:4;" d="M 4.997559 2.497656 L 53.996094 2.497656 C 55.377441 2.497656 56.500488 3.615469 56.500488 4.995625 L 56.500488 52.000781 C 56.500488 53.380938 55.377441 54.49875 53.996094 54.49875 L 4.997559 54.49875 C 3.616211 54.49875 2.504395 53.380938 2.504395 52.000781 L 2.504395 4.995625 C 2.504395 3.615469 3.616211 2.497656 4.997559 2.497656 Z M 4.997559 2.497656 " transform="matrix(0.347826,0,0,0.342466,0,2.054795)"/>
<path style=" stroke:none;fill-rule:nonzero;fill:rgb(20.392157%,56.470588%,86.27451%);fill-opacity:1;" d="M 6.609375 7.019531 C 6.609375 7.871094 5.90625 8.5625 5.042969 8.5625 C 4.179688 8.5625 3.476562 7.871094 3.476562 7.019531 C 3.476562 6.167969 4.179688 5.480469 5.042969 5.480469 C 5.90625 5.480469 6.609375 6.167969 6.609375 7.019531 Z M 6.609375 7.019531 "/>
<path style="fill:none;stroke-width:5;stroke-linecap:butt;stroke-linejoin:miter;stroke:rgb(100%,100%,100%);stroke-opacity:1;stroke-miterlimit:4;" d="M 6.497559 4.497031 C 6.497559 5.603437 5.599121 6.504531 4.498535 6.504531 C 3.397949 6.504531 2.499512 5.603437 2.499512 4.497031 C 2.499512 3.390625 3.397949 2.500937 4.498535 2.500937 C 5.599121 2.500937 6.497559 3.390625 6.497559 4.497031 Z M 6.497559 4.497031 " transform="matrix(0.347826,0,0,0.342466,3.478261,5.479452)"/>
<path style=" stroke:none;fill-rule:nonzero;fill:rgb(20.392157%,56.470588%,86.27451%);fill-opacity:1;" d="M 6.609375 11.816406 C 6.609375 12.667969 5.90625 13.355469 5.042969 13.355469 C 4.179688 13.355469 3.476562 12.667969 3.476562 11.816406 C 3.476562 10.964844 4.179688 10.273438 5.042969 10.273438 C 5.90625 10.273438 6.609375 10.964844 6.609375 11.816406 Z M 6.609375 11.816406 "/>
<path style="fill:none;stroke-width:5;stroke-linecap:butt;stroke-linejoin:miter;stroke:rgb(100%,100%,100%);stroke-opacity:1;stroke-miterlimit:4;" d="M 6.497559 4.503906 C 6.497559 5.598906 5.599121 6.5 4.498535 6.5 C 3.397949 6.5 2.499512 5.598906 2.499512 4.503906 C 2.499512 3.3975 3.397949 2.496406 4.498535 2.496406 C 5.599121 2.496406 6.497559 3.3975 6.497559 4.503906 Z M 6.497559 4.503906 " transform="matrix(0.347826,0,0,0.342466,3.478261,10.273973)"/>
<path style=" stroke:none;fill-rule:nonzero;fill:rgb(20.392157%,56.470588%,86.27451%);fill-opacity:1;" d="M 6.609375 16.609375 C 6.609375 17.460938 5.90625 18.152344 5.042969 18.152344 C 4.179688 18.152344 3.476562 17.460938 3.476562 16.609375 C 3.476562 15.757812 4.179688 15.070312 5.042969 15.070312 C 5.90625 15.070312 6.609375 15.757812 6.609375 16.609375 Z M 6.609375 16.609375 "/>
<path style="fill:none;stroke-width:5;stroke-linecap:butt;stroke-linejoin:miter;stroke:rgb(100%,100%,100%);stroke-opacity:1;stroke-miterlimit:4;" d="M 6.497559 4.499375 C 6.497559 5.605781 5.599121 6.495469 4.498535 6.495469 C 3.397949 6.495469 2.499512 5.605781 2.499512 4.499375 C 2.499512 3.392969 3.397949 2.503281 4.498535 2.503281 C 5.599121 2.503281 6.497559 3.392969 6.497559 4.499375 Z M 6.497559 4.499375 " transform="matrix(0.347826,0,0,0.342466,3.478261,15.068493)"/>
<path style=" stroke:none;fill-rule:nonzero;fill:rgb(20.392157%,56.470588%,86.27451%);fill-opacity:1;" d="M 8.347656 5.480469 L 17.042969 5.480469 L 17.042969 8.5625 L 8.347656 8.5625 Z M 8.347656 5.480469 "/>
<path style="fill:none;stroke-width:5;stroke-linecap:round;stroke-linejoin:round;stroke:rgb(100%,100%,100%);stroke-opacity:1;stroke-miterlimit:4;" d="M 2.503906 2.500937 L 22.505371 2.500937 L 22.505371 6.504531 L 2.503906 6.504531 Z M 2.503906 2.500937 " transform="matrix(0.347826,0,0,0.342466,8.347826,5.479452)"/>
<path style=" stroke:none;fill-rule:nonzero;fill:rgb(20.392157%,56.470588%,86.27451%);fill-opacity:1;" d="M 8.347656 10.273438 L 17.042969 10.273438 L 17.042969 13.355469 L 8.347656 13.355469 Z M 8.347656 10.273438 "/>
<path style="fill:none;stroke-width:5;stroke-linecap:round;stroke-linejoin:round;stroke:rgb(100%,100%,100%);stroke-opacity:1;stroke-miterlimit:4;" d="M 2.503906 2.496406 L 22.505371 2.496406 L 22.505371 6.5 L 2.503906 6.5 Z M 2.503906 2.496406 " transform="matrix(0.347826,0,0,0.342466,8.347826,10.273973)"/>
<path style=" stroke:none;fill-rule:nonzero;fill:rgb(20.392157%,56.470588%,86.27451%);fill-opacity:1;" d="M 8.347656 15.070312 L 17.042969 15.070312 L 17.042969 18.152344 L 8.347656 18.152344 Z M 8.347656 15.070312 "/>
<path style="fill:none;stroke-width:5;stroke-linecap:round;stroke-linejoin:round;stroke:rgb(100%,100%,100%);stroke-opacity:1;stroke-miterlimit:4;" d="M 2.503906 2.503281 L 22.505371 2.503281 L 22.505371 6.495469 L 2.503906 6.495469 Z M 2.503906 2.503281 " transform="matrix(0.347826,0,0,0.342466,8.347826,15.068493)"/>
<path style="fill:none;stroke-width:5;stroke-linecap:round;stroke-linejoin:miter;stroke:rgb(100%,100%,100%);stroke-opacity:1;stroke-miterlimit:4;" d="M 0.000976563 -0.00203125 L 0.000976563 8.9975 " transform="matrix(0.347826,0,0,0.342466,3.304348,0.856164)"/>
<path style="fill:none;stroke-width:5;stroke-linecap:round;stroke-linejoin:miter;stroke:rgb(100%,100%,100%);stroke-opacity:1;stroke-miterlimit:4;" d="M -0.00390625 -0.00203125 L -0.00390625 8.9975 " transform="matrix(0.347826,0,0,0.342466,6.782609,0.856164)"/>
<path style="fill:none;stroke-width:5;stroke-linecap:round;stroke-linejoin:miter;stroke:rgb(100%,100%,100%);stroke-opacity:1;stroke-miterlimit:4;" d="M 0.00244141 -0.00203125 L 0.00244141 8.9975 " transform="matrix(0.347826,0,0,0.342466,10.26087,0.856164)"/>
<path style="fill:none;stroke-width:5;stroke-linecap:round;stroke-linejoin:miter;stroke:rgb(100%,100%,100%);stroke-opacity:1;stroke-miterlimit:4;" d="M -0.00244141 -0.00203125 L -0.00244141 8.9975 " transform="matrix(0.347826,0,0,0.342466,13.73913,0.856164)"/>
<path style="fill:none;stroke-width:5;stroke-linecap:round;stroke-linejoin:miter;stroke:rgb(100%,100%,100%);stroke-opacity:1;stroke-miterlimit:4;" d="M 0.00390625 -0.00203125 L 0.00390625 8.9975 " transform="matrix(0.347826,0,0,0.342466,17.217391,0.856164)"/>
</g>
</svg>
